<svg xmlns="http://www.w3.org/2000/svg" width="200" height="134.548" viewBox="0 0 200 134.548">
  <g id="confirm" transform="translate(0 -80.506)">
    <g id="Group_47" data-name="Group 47" transform="translate(0 80.506)">
      <path id="Path_189" data-name="Path 189" d="M196.8,90.251,190.249,83.7a10.962,10.962,0,0,0-15.468,0L82.727,175.752,25.213,118.236a10.966,10.966,0,0,0-15.468,0l-6.553,6.55a10.972,10.972,0,0,0,0,15.473l64.937,64.933a2.47,2.47,0,0,0,.283.34l6.553,6.444a10.8,10.8,0,0,0,7.758,3.078h.034a10.771,10.771,0,0,0,7.733-3.078l6.554-6.5a1.652,1.652,0,0,0,.249-.278L196.8,105.7A10.923,10.923,0,0,0,196.8,90.251Z" transform="translate(0 -80.506)" fill="#4caf50"/>
    </g>
  </g>
</svg>
