<svg xmlns="http://www.w3.org/2000/svg" width="693" height="125" viewBox="0 0 693 125"><g transform="translate(-207 -974)"><g transform="translate(73 737)"><g transform="translate(0 4)"><text transform="translate(272 300)" fill="#0cc291" font-size="66" font-family="ArialRoundedMTBold, Arial Rounded MT"><tspan x="0" y="0">PERN Boilerplate</tspan></text><text transform="translate(278 347)" fill="#0cc291" font-size="27" font-family="ArialRoundedMTBold, Arial Rounded MT"><tspan x="0" y="0">Docker Based Template to Start Projects </tspan></text></g><g transform="translate(134 236.933)"><g transform="translate(4.874 4.604)"><path d="M321.358,39.781,314.876,44.1l-10.8-2.161-6.482-2.161-8.643,2.161-6.482-2.161,4.321-8.643h8.643L303.9,26.9A61.885,61.885,0,0,1,321.358,39.781Z" transform="translate(-218.517 -24.872)" fill="#03aa6f"/><path d="M73.371,24.87l-2.161,6.482-6.482,2.161-6.482,10.8L47.443,50.8,32.318,52.959v6.482l4.321,4.321v8.643l-6.482-4.322-6.482-4.321-3.76-11.3A62.62,62.62,0,0,1,54.271,18.6l6.136,4.105Z" transform="translate(-19.916 -18.604)" fill="#03aa6f"/><path d="M115.964,231.387l-2.161,10.8-8.643,8.643v6.482L96.518,263.8v10.8l-6.482-2.161-4.322-10.8V240.03l-10.8-2.161-4.321-8.643v-6.482l4.321-4.321,6.482-6.482,4.321,8.643H100.84l6.482,10.8Z" transform="translate(-58.188 -164.9)" fill="#03aa6f"/><path d="M323.983,118.784a62.6,62.6,0,0,1-3.457,66.7l-5.834-5.834v-8.643l-4.321-8.643-4.321-8.643V145.08l-6.482-4.321-8.643,2.161L275.8,136.437l-2.161-15.125,6.482-6.482h12.964l4.321,6.482,12.964,2.161,12.964-4.321Z" transform="translate(-211.852 -91.557)" fill="#03aa6f"/></g><path d="M75.415,21.625l8.62-2.156L90.5,21.625l10.775,2.156,6.465-4.312a61.567,61.567,0,0,1,9.266,12.569l-.646.367-12.93,4.312L90.5,34.56l-4.31-6.468H73.261L66.8,34.56,68.95,49.651l15.085,6.468,8.62-2.156,6.465,4.312V66.9l4.31,8.624,4.31,8.624v8.624l5.818,5.821A62.5,62.5,0,0,1,4.862,38.376l3.75,11.275,6.465,4.312,6.465,4.312-4.31,4.312v6.468l4.31,8.624,10.775,2.156v21.559l4.31,10.779,6.465,2.156V103.549l8.62-6.468V90.613l8.62-8.624L62.485,71.21h-8.62L47.4,60.431H32.316l-4.31-8.624-6.465,6.468V49.651l-4.31-4.311V38.872l15.085-2.156,10.775-6.468,6.465-10.779,6.465-2.156,2.155-6.468L45.246,8.69l-6.12-4.1a62.474,62.474,0,0,1,51.2,2.027L81.88,10.845H73.26l-4.31,8.624Z" transform="translate(0)" fill="#86daf1"/></g></g></g></svg>