<svg xmlns="http://www.w3.org/2000/svg" width="511.998" height="512" viewBox="0 0 511.998 512"><g transform="translate(0 -0.067)"><g transform="translate(19.916 18.604)"><path d="M441.374,79.519,414.889,97.175l-44.141-8.828-26.485-8.828L308.95,88.347l-26.485-8.828,17.656-35.313h35.313l34.607-17.3A252.853,252.853,0,0,1,441.374,79.519Z" transform="translate(-19.916 -18.604)" fill="#03aa6f"/><path d="M238.325,44.206,229.5,70.691l-26.485,8.828L176.527,123.66l-44.141,26.485-61.8,8.828v26.485l17.656,17.656v35.313L61.762,220.77,35.277,203.114,19.916,156.943A255.855,255.855,0,0,1,160.284,18.6l25.072,16.774Z" transform="translate(-19.916 -18.604)" fill="#03aa6f"/><path d="M255.982,291.395l-8.828,44.141-35.313,35.313v26.485l-35.313,26.484v44.141l-26.484-8.828L132.387,414.99V326.708L88.246,317.88,70.59,282.567V256.082l17.656-17.656,26.485-26.485,17.656,35.313h61.8l26.485,44.141Z" transform="translate(-19.916 -18.469)" fill="#03aa6f"/><path d="M479.335,130.987A255.768,255.768,0,0,1,465.21,403.513l-23.836-23.836V344.364l-17.656-35.313-17.656-35.313V238.425l-26.485-17.656L344.264,229.6l-61.8-26.485-8.828-61.8,26.485-26.485h52.969l17.656,26.485,52.969,8.828,52.969-17.656Z" transform="translate(-19.916 -18.469)" fill="#03aa6f"/></g><path d="M308.951,88.37l35.313-8.83,26.485,8.83L414.89,97.2,441.375,79.54a252.183,252.183,0,0,1,37.961,51.482l-2.648,1.5-52.969,17.661-52.969-8.83-17.656-26.492H300.125L273.64,141.353l8.828,61.813,61.8,26.492,35.313-8.83,26.485,17.661v35.322l17.656,35.322,17.656,35.322v35.322l23.836,23.842c-81.528,115.556-241.275,143.117-356.792,61.566a256.136,256.136,0,0,1-88.5-308.2l15.361,46.183,26.485,17.661,26.485,17.661L70.59,256.149v26.492l17.656,35.322,44.141,8.83V415.1l17.656,44.153,26.485,8.83V423.93l35.313-26.492V370.946l35.313-35.322,8.828-44.153H220.669l-26.485-44.153h-61.8L114.731,212,88.246,238.488V203.165L70.59,185.506V159.014l61.8-8.83,44.141-26.492,26.485-44.153,26.485-8.83,8.828-26.492-52.969-8.83L160.285,18.608a255.973,255.973,0,0,1,209.758,8.3L335.436,44.217H300.123L282.467,79.539Z" fill="#86daf1"/></g></svg>